<svg width="52" height="51" viewBox="0 0 52 51" fill="none" xmlns="http://www.w3.org/2000/svg">
<path d="M12.2477 18.9368C11.7537 19.0627 11.3762 19.1465 11.0104 19.2584C9.78011 19.6312 8.57546 20.0739 7.51526 20.8172C6.70206 21.3858 6.10323 22.1104 5.95876 23.1473C5.88972 23.782 6.00627 24.423 6.2943 24.9928C6.69949 25.9128 7.3273 26.7176 8.1211 27.3345C9.15799 28.1337 9.36768 29.2428 9.44924 30.4289C9.46788 30.7038 9.30711 30.8063 9.06012 30.776C8.93232 30.7552 8.80924 30.7118 8.69662 30.6479C6.79993 29.6063 4.89623 28.5694 3.2442 27.1527C2.35866 26.4426 1.62424 25.5624 1.08421 24.564C0.319941 23.0401 0.664797 21.7027 2.07683 20.7357C3.18829 19.9761 4.45586 19.6009 5.74673 19.3073C7.82495 18.8652 9.93784 18.6055 12.0613 18.5314C12.1992 18.5361 12.3354 18.4999 12.4527 18.4273C12.57 18.3547 12.6633 18.2491 12.7207 18.1236C14.5621 14.9924 17.4132 12.58 20.8061 11.2825C25.3521 9.52559 29.8143 9.91005 34.1529 12.0561C34.2321 12.0934 34.3137 12.126 34.4535 12.1866C34.4208 11.9885 34.4069 11.8394 34.3696 11.6949C34.0639 10.3563 33.5836 9.06374 32.9412 7.85025C32.7112 7.4441 32.4394 7.06301 32.1304 6.71317C31.1983 5.66463 30.0333 5.46656 28.8007 6.12365C27.8991 6.5709 27.1297 7.24553 26.5684 8.08093C25.923 9.09918 25.0306 9.3718 23.9401 9.36015C23.7467 9.36015 23.551 9.38578 23.3576 9.3718C23.0011 9.34617 22.8706 9.18539 22.9242 8.83588C22.9473 8.7124 22.9923 8.59404 23.057 8.48637C24.2034 6.44986 25.3871 4.432 27.0391 2.75433C27.5848 2.2014 28.1977 1.71918 28.8636 1.319C30.1591 0.545405 31.4943 0.85298 32.403 2.05764C33.2744 3.22269 33.7405 4.56482 34.1016 5.94889C34.6087 7.95931 34.8969 10.0186 34.9614 12.091C34.955 12.2314 34.9872 12.3708 35.0546 12.4941C35.122 12.6173 35.2219 12.7197 35.3436 12.79C39.2698 15.4347 41.7397 19.0533 42.49 23.7578C43.0689 27.1328 42.5212 30.6046 40.9311 33.6374C40.8286 33.8331 40.7401 34.0335 40.6492 34.2316C40.6492 34.2502 40.6492 34.2805 40.6725 34.376C41.0337 34.3108 41.3995 34.2642 41.756 34.178C43.0216 33.8938 44.2396 33.4284 45.3723 32.7962C46.2531 32.2836 46.9847 31.6032 47.0826 30.529C47.1145 29.9905 47.0351 29.4512 46.8496 28.9446C46.4899 27.9924 45.8961 27.1461 45.123 26.484C44.7602 26.1584 44.4774 25.7536 44.2964 25.301C44.1153 24.8484 44.041 24.3602 44.0791 23.8743C44.0791 23.6133 44.0791 23.35 44.368 23.2056C44.4959 23.1389 44.6405 23.1109 44.7841 23.1249C44.9276 23.139 45.064 23.1946 45.1766 23.2848C45.7265 23.6716 46.2787 24.0607 46.8076 24.4685C48.2569 25.5683 49.6597 26.7217 50.7804 28.171C51.3466 28.905 51.8499 29.6716 51.9455 30.6339C51.9917 31.0098 51.933 31.3912 51.7759 31.7358C51.6188 32.0804 51.3694 32.3748 51.0554 32.5865C50.1076 33.2567 49.0187 33.7007 47.8725 33.8844C46.1855 34.2036 44.4822 34.4436 42.7812 34.6789C42.0347 34.7644 41.2841 34.8103 40.5327 34.8164C40.1995 34.8164 40.0946 35.0494 39.9572 35.2661C38.6051 37.3083 36.7916 39.0036 34.6632 40.2152C31.8804 41.843 28.6702 42.5903 25.4546 42.3589C22.3277 42.1422 19.5176 41.0145 16.9591 39.225L16.7261 39.0688C16.7261 39.0688 16.7028 39.0688 16.6539 39.0688C16.6399 39.1756 16.6399 39.2837 16.6539 39.3904C17.036 40.7512 17.4438 42.1026 18.2174 43.3049C18.3451 43.5001 18.4852 43.6869 18.6368 43.8642C19.6131 45.0292 20.8248 45.2809 22.1855 44.6028C22.4861 44.4537 22.7447 44.2184 23.05 44.0855C23.3497 43.9472 23.6733 43.8681 24.003 43.8525C24.4951 43.8634 24.9857 43.9101 25.471 43.9923C26.17 44.0855 26.3448 44.4211 25.9766 45.0316C24.9677 46.7092 23.8213 48.2937 22.1762 49.3958C21.6826 49.7259 21.1281 49.9541 20.5451 50.0669C19.5316 50.2673 18.7673 49.7616 18.1941 48.9531C17.4624 47.9162 17.1083 46.7232 16.8473 45.5046C16.4113 43.5307 16.1717 41.5186 16.132 39.4976C16.1399 39.1914 16.0815 38.8871 15.9608 38.6056C15.8402 38.3241 15.6601 38.072 15.4329 37.8665C13.038 35.5601 11.418 32.5672 10.7966 29.3009C10.1751 26.0346 10.5828 22.6559 11.9634 19.6312C12.0543 19.4378 12.1219 19.2467 12.2477 18.9368ZM11.5976 26.272C11.5723 30.2518 13.1289 34.0786 15.9251 36.9106C18.7213 39.7427 22.5281 41.348 26.5079 41.3733C30.4876 41.3986 34.3145 39.842 37.1465 37.0458C39.9786 34.2495 41.5839 30.4428 41.6092 26.463C41.6791 18.1399 35.008 11.4293 26.897 11.3174C18.5273 11.1939 11.5976 17.8487 11.5976 26.272Z" fill="white"/>
<path d="M27.2908 47.8325C27.1347 47.8325 26.9786 47.8325 26.8248 47.8325C26.2819 47.8325 26.0209 47.5995 26.0186 47.1125C26.0162 46.6255 26.2702 46.4485 26.8388 46.3902C28.111 46.2574 29.4019 46.2061 30.6461 45.9242C36.1475 44.7172 40.4651 41.7673 43.4896 36.9813C43.6844 36.6755 43.896 36.3806 44.1234 36.0982C44.167 36.0289 44.224 35.9689 44.2909 35.9217C44.3579 35.8746 44.4335 35.8411 44.5134 35.8234C44.5934 35.8056 44.6761 35.8038 44.7567 35.8182C44.8373 35.8326 44.9143 35.8628 44.9832 35.9071C45.1312 35.9898 45.2451 36.1222 45.3048 36.2808C45.3645 36.4395 45.3662 36.6142 45.3094 36.7739C45.2038 37.0377 45.0727 37.2905 44.918 37.5289C41.756 42.499 37.3498 45.7844 31.6364 47.2197C30.2384 47.5739 28.7611 47.7044 27.3211 47.9374L27.2908 47.8325Z" fill="white"/>
<path d="M22.2114 5.19189C22.6774 5.19189 22.9104 5.36665 22.9803 5.72781C23.0619 6.15422 22.9221 6.4385 22.4933 6.57132C21.6801 6.82297 20.8389 7.00005 20.0374 7.282C15.277 8.89055 11.2966 12.2321 8.8879 16.642C8.76208 16.875 8.65489 17.108 8.52674 17.3294C8.43308 17.5027 8.27592 17.633 8.08824 17.693C7.90056 17.7529 7.69694 17.7379 7.52014 17.6509C7.43369 17.6123 7.35629 17.556 7.29292 17.4856C7.22955 17.4153 7.18162 17.3325 7.15221 17.2425C7.12279 17.1525 7.11255 17.0573 7.12214 16.9631C7.13173 16.8689 7.16095 16.7778 7.2079 16.6956C7.58659 15.9301 8.00903 15.1872 8.47314 14.4703C11.712 9.62684 16.1733 6.55034 21.8572 5.24083C21.92 5.22545 21.9839 5.21454 22.0483 5.20821C22.1252 5.19423 22.1788 5.19189 22.2114 5.19189Z" fill="white"/>
<path d="M47.6327 21.8991C47.6327 22.5212 47.4137 22.8311 46.9989 22.8987C46.6634 22.9593 46.3628 22.7752 46.2277 22.3348C45.9947 21.5705 45.8269 20.7806 45.5799 20.021C44.5466 16.8344 42.722 13.9619 40.2766 11.6723C39.1815 10.62 37.9578 9.71031 36.6347 8.96472C36.5555 8.92044 36.4762 8.87385 36.4017 8.82258C36.0032 8.56161 35.8658 8.13987 36.0638 7.79269C36.1696 7.61851 36.3401 7.49345 36.5381 7.44495C36.736 7.39645 36.945 7.42849 37.1193 7.53404C37.4973 7.7339 37.8637 7.95483 38.2168 8.19579C42.8071 11.2249 45.8292 15.3748 47.3228 20.6571C47.451 21.1162 47.5535 21.5822 47.6327 21.8991Z" fill="white"/>
<path d="M5.52783 31.3215C5.52783 30.7599 5.69094 30.5153 6.06375 30.4314C6.15082 30.4001 6.24361 30.388 6.33578 30.3959C6.42796 30.4037 6.51735 30.4314 6.59786 30.477C6.67838 30.5225 6.7481 30.5849 6.8023 30.6599C6.8565 30.7349 6.89389 30.8207 6.91191 30.9114C7.19618 31.7293 7.41055 32.5704 7.69948 33.386C8.53616 35.6684 9.80161 37.7699 11.4276 39.577C12.4036 40.707 13.5148 41.7126 14.7364 42.5712C15.0113 42.7646 15.2373 42.9743 15.2024 43.3587C15.1628 43.8714 14.8202 44.144 14.3263 43.9879C14.1078 43.9087 13.9022 43.798 13.7158 43.6593C12.4086 42.7692 11.3111 41.6531 10.2533 40.4881C7.97675 37.9739 6.56705 35.003 5.60938 31.7898C5.57247 31.6356 5.54523 31.4792 5.52783 31.3215Z" fill="white"/>
<path d="M27.5075 21.069C27.5037 19.9369 27.2067 18.825 26.6453 17.8418C26.3751 17.3409 26.0442 16.8725 25.7576 16.3809C25.6015 16.1129 25.436 16.0779 25.1611 16.2224C23.8027 16.9561 22.531 17.8401 21.37 18.8577C21.1813 19.0185 21.0065 19.1933 20.8271 19.361C19.9393 20.1859 19.5572 21.1762 19.8787 22.3762C20.1118 23.222 20.3448 24.0632 20.5964 24.9067C20.6749 25.1249 20.7349 25.3494 20.7758 25.5777C20.8294 26.1393 20.3471 26.5307 19.8438 26.2768C18.3339 25.4729 17.297 26.4888 16.1716 27.1762C16.1342 27.2231 16.1085 27.2781 16.0963 27.3368C16.0842 27.3955 16.086 27.4562 16.1017 27.514C16.4119 28.5389 17.0352 29.4409 17.8842 30.0934C18.1685 30.3008 18.6065 30.3102 18.9817 30.3777C19.1498 30.3877 19.3185 30.3736 19.4826 30.3358C19.6214 30.2968 19.7694 30.3071 19.9015 30.3649C20.0336 30.4226 20.1416 30.5243 20.2073 30.6527C20.2901 30.7874 20.3237 30.9467 20.3025 31.1034C20.2813 31.2601 20.2065 31.4046 20.0908 31.5125C19.8811 31.7073 19.719 31.9477 19.6172 32.2152C19.5153 32.4827 19.4765 32.7701 19.5036 33.055C19.5289 33.4418 19.6195 33.8216 19.7716 34.1781C20.0605 34.7816 20.4333 35.3432 20.7735 35.9233C20.7889 35.9627 20.8131 35.9979 20.8442 36.0264C20.8754 36.0548 20.9127 36.0757 20.9533 36.0875C20.9939 36.0992 21.0366 36.1014 21.0781 36.094C21.1197 36.0865 21.159 36.0696 21.1929 36.0445C22.0551 35.5785 22.9125 35.1125 23.5463 34.3575C23.7442 34.107 23.8843 33.8157 23.9564 33.5047C24.0636 33.0806 24.2686 32.8453 24.6554 32.8523C24.8392 32.8576 25.0139 32.9329 25.1439 33.0629C25.2738 33.1928 25.3492 33.3676 25.3545 33.5513C25.3614 33.9222 25.2883 34.2901 25.1401 34.6301C24.9221 35.0418 24.637 35.4143 24.2966 35.7323C23.3832 36.5991 22.2787 37.1769 21.1417 37.6919C20.9901 37.7845 20.8104 37.8201 20.635 37.7923C20.4595 37.7646 20.2996 37.6753 20.184 37.5404C19.2861 36.5818 18.603 35.4426 18.1801 34.1991C17.997 33.5218 17.9715 32.8116 18.1055 32.123C18.1195 32.0204 18.0496 31.8247 17.9774 31.8014C16.7821 31.4239 16.0178 30.5571 15.4399 29.5179C15.084 28.8435 14.7682 28.1487 14.4939 27.4372C14.2865 26.9269 14.3867 26.6636 14.8108 26.3164C15.9106 25.4193 17.1153 24.7342 18.5389 24.5036C18.7719 24.4663 18.7953 24.3591 18.7463 24.1517C18.5925 23.497 18.4388 22.8422 18.3269 22.1805C18.0287 20.4073 18.8908 19.1094 20.1001 17.9676C21.4795 16.6675 23.0826 15.6888 24.7416 14.7964C25.8764 14.1859 26.0116 14.2162 26.7735 15.2624C27.8267 16.7001 28.6376 18.2496 28.9055 20.0368C28.9716 20.535 28.9841 21.0388 28.9428 21.5397C28.941 21.6409 28.9191 21.7406 28.8782 21.8332C28.8373 21.9258 28.7783 22.0092 28.7047 22.0787C28.6312 22.1481 28.5444 22.2022 28.4497 22.2377C28.3549 22.2732 28.254 22.2894 28.1529 22.2853C27.7521 22.2597 27.5028 21.9358 27.4981 21.4278L27.5075 21.069Z" fill="white"/>
<path d="M26.2515 25.6688C26.2768 24.9678 26.5318 24.2945 26.9772 23.7527C27.4227 23.2108 28.0339 22.8304 28.7167 22.6699C29.3814 22.5268 30.0749 22.6115 30.6856 22.9103C31.2963 23.2091 31.7888 23.7047 32.0837 24.3173C32.3757 24.9296 32.4565 25.6214 32.3136 26.2846C32.1707 26.9477 31.812 27.5448 31.2938 27.9825C31.1226 28.121 30.9328 28.2347 30.7299 28.3204C30.5599 28.4008 30.3653 28.4119 30.1872 28.3514C30.0091 28.2909 29.8615 28.1636 29.7756 27.9963C29.6897 27.829 29.6722 27.6349 29.7268 27.4549C29.7814 27.2749 29.9038 27.1232 30.0682 27.0319C30.2841 26.9124 30.4701 26.7454 30.6122 26.5436C30.7543 26.3418 30.8487 26.1104 30.8883 25.8668C30.952 25.467 30.8578 25.0581 30.6256 24.7264C30.3935 24.3946 30.0415 24.1661 29.6441 24.089C28.7773 23.9538 27.8662 24.5993 27.8173 25.4288C27.8186 25.7125 27.889 25.9916 28.0223 26.242C28.6328 27.4699 29.2689 28.6862 29.8864 29.9072C29.9725 30.067 30.0503 30.2311 30.1194 30.3988C30.189 30.5532 30.2002 30.7276 30.1509 30.8896C30.1016 31.0516 29.9952 31.1902 29.8514 31.2796C29.7037 31.3772 29.5252 31.4172 29.3499 31.3918C29.1747 31.3665 29.0148 31.2776 28.9008 31.1421C28.8167 31.044 28.7447 30.936 28.6864 30.8206C28.0083 29.5553 27.3163 28.2971 26.6709 27.0156C26.4947 26.5788 26.3544 26.1283 26.2515 25.6688Z" fill="white"/>
<path d="M23.56 31.8786C21.8917 31.8786 20.7779 31.0537 20.3725 29.7978C19.9414 28.4673 20.3212 27.1532 21.4653 26.4005C22.2679 25.9044 23.098 25.4539 23.9515 25.0514C24.0341 25.0052 24.1251 24.9762 24.2192 24.9663C24.3133 24.9563 24.4084 24.9656 24.4988 24.9935C24.5893 25.0213 24.6731 25.0673 24.7452 25.1285C24.8173 25.1897 24.8763 25.265 24.9185 25.3497C24.9634 25.4328 24.9914 25.5241 25.0009 25.6181C25.0105 25.7122 25.0013 25.8072 24.9741 25.8977C24.9468 25.9882 24.9019 26.0724 24.842 26.1455C24.782 26.2186 24.7083 26.2791 24.6249 26.3236C24.2614 26.5566 23.8723 26.7268 23.4948 26.9271C23.1173 27.1275 22.7492 27.293 22.402 27.5166C22.0771 27.7261 21.8418 28.049 21.7419 28.4224C21.642 28.7959 21.6846 29.1931 21.8614 29.5368C22.0254 29.8871 22.3166 30.1618 22.6758 30.3051C23.035 30.4483 23.4354 30.4494 23.7954 30.3081C24.2148 30.1473 24.6039 29.9027 25.0094 29.7046C25.4148 29.5065 25.7969 29.3132 26.2047 29.1524C26.2794 29.1179 26.3602 29.0988 26.4424 29.096C26.5245 29.0932 26.6064 29.1069 26.6833 29.1362C26.7601 29.1655 26.8303 29.2098 26.8898 29.2666C26.9492 29.3234 26.9968 29.3915 27.0295 29.4669C27.1973 29.7792 27.188 30.166 26.8874 30.3477C25.7573 31.0887 24.6039 31.7737 23.56 31.8786Z" fill="white"/>
<path d="M38.6313 22.3691C38.6393 23.0403 38.4268 23.6955 38.0265 24.2342C37.6263 24.773 37.0603 25.1655 36.4154 25.3516C35.7918 25.5443 35.122 25.5259 34.5099 25.2992C33.8978 25.0726 33.3776 24.6504 33.0298 24.098C32.5987 23.399 32.2119 22.658 31.8484 21.9124C31.5222 21.2413 31.8484 20.6239 32.4892 20.7217C32.7547 20.7959 32.9827 20.9672 33.1276 21.2017C33.4375 21.6911 33.6612 22.2363 33.9525 22.7396C34.1307 23.0685 34.3525 23.3718 34.6119 23.6413C34.8323 23.8663 35.1238 24.0081 35.4368 24.0425C35.7499 24.0769 36.0652 24.0019 36.3292 23.8301C36.9304 23.4782 37.2822 22.7815 37.1028 22.1547C36.9595 21.7409 36.7843 21.339 36.5785 20.9524C36.3805 20.5307 36.1428 20.1252 35.9773 19.6918C35.7443 19.086 35.9168 18.7342 36.4271 18.5827C36.5631 18.5313 36.7134 18.5324 36.8487 18.5858C36.984 18.6392 37.0945 18.7411 37.1587 18.8716C37.655 19.8503 38.121 20.8429 38.5754 21.8402C38.6248 22.0119 38.6437 22.1909 38.6313 22.3691Z" fill="white"/>
<path d="M23.3737 29.5348C22.9077 29.5604 22.6747 29.3764 22.5722 29.0525C22.511 28.9054 22.5061 28.7409 22.5586 28.5904C22.611 28.44 22.7171 28.3141 22.8564 28.2369C23.5741 27.8292 24.3081 27.4447 25.0607 27.1022C25.1436 27.0627 25.2335 27.0399 25.3252 27.0351C25.417 27.0304 25.5087 27.0437 25.5953 27.0745C25.6819 27.1052 25.7615 27.1527 25.8297 27.2142C25.8979 27.2757 25.9533 27.3501 25.9927 27.4331C26.0378 27.5059 26.0675 27.5872 26.0802 27.6719C26.0928 27.7566 26.0881 27.843 26.0663 27.9258C26.0445 28.0086 26.0061 28.0861 25.9534 28.1536C25.9007 28.2212 25.8348 28.2772 25.7597 28.3185C25.0141 28.7542 24.2335 29.127 23.4646 29.5208C23.418 29.5488 23.3434 29.5371 23.3737 29.5348Z" fill="white"/>
<path d="M36.3828 22.5019C36.2292 22.7164 36.0482 22.9098 35.8445 23.0774C35.7211 23.1546 35.5731 23.1823 35.4301 23.1551C35.2871 23.1279 35.1597 23.0477 35.0733 22.9306C34.931 22.763 34.809 22.5792 34.7098 22.3831C34.4208 21.8355 34.1296 21.2856 33.8663 20.724C33.8139 20.6318 33.782 20.5293 33.7728 20.4236C33.7636 20.318 33.7773 20.2115 33.8128 20.1116C33.8484 20.0117 33.9051 19.9206 33.9791 19.8445C34.0531 19.7685 34.1425 19.7092 34.2414 19.6708C34.5537 19.5473 34.8682 19.58 35.0337 19.8736C35.4671 20.6355 35.8608 21.4231 36.2639 22.2036C36.288 22.2789 36.2998 22.3576 36.2989 22.4367L36.3828 22.5019Z" fill="white"/>
</svg>
