<svg width="179" height="40" viewBox="0 0 179 40" fill="none" xmlns="http://www.w3.org/2000/svg">
<path d="M103.268 0.5H153.719V39.5H95.7603C100.718 27.3807 103.268 14.4119 103.268 1.31777V0.5Z" fill="#504EBA"/>
<path d="M106.02 27.9663C106.02 29.5578 105.715 31.0598 105.106 32.4725C104.515 33.8673 103.69 35.0922 102.633 36.1472C101.593 37.1843 100.366 38.0069 98.9496 38.6149C97.5516 39.205 96.0551 39.5 94.46 39.5C93.0261 39.5 91.6461 39.2497 90.3198 38.749C89.0114 38.2483 87.8285 37.5151 86.7711 36.5495C85.7136 37.5151 84.5218 38.2483 83.1955 38.749C81.8692 39.2497 80.4891 39.5 79.0553 39.5C77.4602 39.5 75.9547 39.205 74.5388 38.6149C73.1408 38.0069 71.9131 37.1843 70.8556 36.1472C69.8161 35.0922 68.9917 33.8673 68.3823 32.4725C67.7908 31.0598 67.4951 29.5578 67.4951 27.9663V0.5H75.2109V27.9663C75.2109 28.5028 75.3095 29.0124 75.5066 29.4952C75.7038 29.9601 75.9726 30.3714 76.3131 30.729C76.6716 31.0688 77.0838 31.337 77.5498 31.5337C78.0158 31.7304 78.5176 31.8287 79.0553 31.8287C79.593 31.8287 80.0948 31.7304 80.5608 31.5337C81.0268 31.337 81.4301 31.0688 81.7706 30.729C82.1291 30.3714 82.4069 29.9601 82.604 29.4952C82.8012 29.0124 82.8998 28.5028 82.8998 27.9663V0.5H90.6155V27.9663C90.6155 28.5028 90.7141 29.0124 90.9112 29.4952C91.1084 29.9601 91.3772 30.3714 91.7178 30.729C92.0762 31.0688 92.4885 31.337 92.9544 31.5337C93.4204 31.7304 93.9223 31.8287 94.46 31.8287C94.9976 31.8287 95.4995 31.7304 95.9655 31.5337C96.4315 31.337 96.8347 31.0688 97.1753 30.729C97.5337 30.3714 97.8115 29.9601 98.0087 29.4952C98.2237 29.0124 98.3313 28.5028 98.3313 27.9663V0.5H106.02V27.9663Z" fill="white"/>
<path d="M40.1 8.19807V23.5942H47.8158C48.8732 23.5942 49.868 23.3975 50.7999 23.0041C51.7319 22.5928 52.5474 22.0385 53.2464 21.3411C53.9454 20.6437 54.492 19.8301 54.8863 18.9003C55.2986 17.9525 55.5047 16.9512 55.5047 15.8961C55.5047 14.8411 55.2986 13.8487 54.8863 12.9188C54.492 11.9711 53.9454 11.1486 53.2464 10.4512C52.5474 9.75378 51.7319 9.20839 50.7999 8.81499C49.868 8.40371 48.8732 8.19807 47.8158 8.19807H40.1ZM40.1 38.9635H32.3843V0.5H47.8158C49.2317 0.5 50.5938 0.687758 51.9022 1.06327C53.2106 1.42091 54.4293 1.93948 55.5585 2.61898C56.7055 3.2806 57.745 4.08528 58.677 5.03301C59.6269 5.96286 60.4335 7 61.0966 8.14443C61.7777 9.28886 62.2974 10.5138 62.6559 11.8191C63.0323 13.1245 63.2204 14.4835 63.2204 15.8961C63.2204 18.0062 62.8172 20 62.0107 21.8776C61.2041 23.7373 60.1019 25.3645 58.7039 26.7593C57.3059 28.1541 55.666 29.2538 53.7841 30.0585C51.9201 30.8631 49.9307 31.2655 47.8158 31.2655H40.1V38.9635Z" fill="white"/>
<path d="M26.9809 38.9635H0.553711V0.5H26.9809V8.19807H8.26947V15.8961H20.9319V23.5942H8.26947V31.2655H26.9809V38.9635Z" fill="white"/>
<path d="M119.862 17.6391V14.721H124.946V28.1187H121.679V17.6391H119.862ZM136.526 17.4556H130.8V19.9883C131.045 19.7191 131.388 19.4989 131.828 19.3276C132.268 19.1563 132.746 19.0707 133.26 19.0707C134.177 19.0707 134.936 19.2787 135.535 19.6947C136.147 20.1107 136.594 20.649 136.875 21.3097C137.156 21.9704 137.297 22.6862 137.297 23.457C137.297 24.8885 136.893 26.0264 136.086 26.8707C135.278 27.7027 134.14 28.1187 132.672 28.1187C131.693 28.1187 130.843 27.9535 130.121 27.6231C129.399 27.2805 128.843 26.8095 128.451 26.2099C128.06 25.6104 127.845 24.9191 127.809 24.1361H130.874C130.947 24.5154 131.124 24.8335 131.406 25.0904C131.687 25.3351 132.073 25.4575 132.562 25.4575C133.137 25.4575 133.565 25.2739 133.847 24.9069C134.128 24.5398 134.269 24.0504 134.269 23.4387C134.269 22.8391 134.122 22.3803 133.828 22.0622C133.535 21.7441 133.107 21.585 132.544 21.585C132.128 21.585 131.785 21.689 131.516 21.897C131.247 22.0928 131.069 22.3558 130.984 22.6862H127.956V14.7027H136.526V17.4556Z" fill="white"/>
</svg>
